<svg version="1.2" xmlns="http://www.w3.org/2000/svg" viewBox="0 0 1300 300" width="1300" height="300">
	<style>
		.s0 { fill: #36454f } 
		.s1 { fill: #c9302c } 
	</style>
	<path id="STOR CONNECT." class="s0" aria-label="STOR CONNECT."  d="m9.9 184.5q4.1-6.2 6.8-11.6 2.8-5.3 5.4-12.4 8.6 5 20.1 7.8 11.5 2.8 21.4 2.8 10.1 0 14.2-1.7 4.2-1.8 4.2-3.9 0-7.5-22.7-7.5-24.9 0-36.1-5.1-11.2-5.2-11.2-16.8 0-16.5 13.6-24.3 13.7-7.8 35.5-7.8 12.7 0 26 3.3 13.4 3.2 24.2 8.8-3.6 8-7.5 19.6-0.7 2.4-1.2 3.7-6.2-5-18.8-8.3-12.6-3.4-22.2-3.4-11.6 0-15.6 1.5-4 1.5-4 4.4 0 3 5.5 4.8 5.6 1.7 16.1 1.7 25.8 0 37.5 6 11.7 5.8 11.7 18 0 17.1-12.4 24.7-12.4 7.4-37.7 7.4-13.5 0-27.6-2.9-14-3.1-25.2-8.8zm212.8-78.1v25.6q-19.2-0.6-37.2-0.7v63.7h-30.5v-63.7q-18.2 0.1-37.1 0.7v-25.6zm56.5 89.8q-28 0-41.1-12.1-13.2-12.2-13.2-34.1 0-21.7 13-33.9 13.2-12.2 41.3-12.2 28.2 0 41.2 12.2 13.2 12.2 13.2 33.9 0 22.1-13.1 34.1-13 12.1-41.3 12.1zm0-24.9q13.5 0 19.5-5.1 6-5.2 6-16.2 0-10.8-6-16-6-5.2-19.5-5.2-13.4 0-19.4 5.2-6 5.2-6 16 0 10.8 6 16.1 6 5.2 19.4 5.2zm162.6-35.3q0 10.6-5.2 17.9-5.1 7.3-17.7 10.6 1.5 2 2.1 3.1l19.7 27.4h-33.1q-5.4-10-17-28.3h-17.9v28.3h-28.8q1-23.7 1-44.3 0-20.6-1-44.3h28.8v0.1h25q24.6 0 34.4 8 9.7 7.9 9.7 21.5zm-52.7-6h-16.4v13.9h16.4q10.4 0 15.7-0.6 5.3-0.8 7.4-2.2 2.1-1.5 2.1-4.3 0-2.7-2-4.1-1.9-1.5-7.3-2.1-5.4-0.6-15.9-0.6zm140.5 66.2q-27.6 0-40.7-11.7-13-11.7-13-33.4 0-21.9 13-34.5 13.1-12.7 40.7-12.7 38.5 0 51.6 26.4-11 3.8-25.8 11.4-3.5-6.8-11.2-10.1-7.6-3.3-15.5-3.3-11.7 0-17.4 6.2-5.8 6.1-5.8 15.1 0 9.8 6.1 16 6.2 6.1 18.9 6.1 10.2 0 16.1-3.3 6-3.4 8.8-10.7 10 5.3 25.6 12-6.1 14.8-20.3 20.7-14.3 5.8-31.1 5.8zm111.6 0q-28 0-41.1-12.1-13.2-12.2-13.2-34.1 0-21.7 13-33.9 13.2-12.2 41.3-12.2 28.2 0 41.2 12.2 13.2 12.2 13.2 33.9 0 22.1-13.1 34.1-13 12.1-41.3 12.1zm0-24.9q13.5 0 19.5-5.1 6-5.2 6-16.2 0-10.8-6-16-6-5.2-19.5-5.2-13.4 0-19.4 5.2-6 5.2-6 16 0 10.8 6 16.1 6 5.2 19.4 5.2zm137.1-64.8h29.9q-0.8 20.7-0.8 44.2 0 23.7 0.8 44.3h-43.6l-29.6-66.6 2.2 66.6h-31.3q1-23.7 1-44.3 0-20.5-1-44.2h44.9l29.6 68.5zm112 0h29.9q-0.8 20.6-0.8 44.2 0 23.6 0.8 44.2h-43.7l-29.5-66.6 2.2 66.6h-31.3q0.9-23.6 0.9-44.2 0-20.5-0.9-44.2h44.9l29.6 68.4zm68.3 53.5v12.7q46.4-0.3 67.2-1.4-0.8 5-1.1 10.4-0.1 5.2-0.1 13.3h-94.8q1-23.7 1-44.3 0-20.6-1-44.3h94.8v22.1h-66v11.7q5.9 0.1 17.3 0.1 19.4 0 40.2-0.7v21q-20.8-0.8-40.2-0.8-11.4 0-17.3 0.2zm130.9 36.2q-27.6 0-40.6-11.7-13.1-11.7-13.1-33.4 0-21.9 13.1-34.6 13-12.7 40.6-12.7 38.6 0 51.6 26.5-11 3.8-25.7 11.4-3.6-6.9-11.2-10.2-7.6-3.3-15.5-3.3-11.8 0-17.5 6.3-5.7 6.1-5.7 15.1 0 9.8 6.1 16 6.2 6.1 18.9 6.1 10.1 0 16.1-3.3 6-3.4 8.8-10.7 10 5.3 25.6 12-6.1 14.8-20.4 20.6-14.3 5.9-31.1 5.9zm166.1-89.8v25.6q-19.1-0.6-37.2-0.7v63.7h-30.5v-63.7q-18.2 0.1-37.1 0.7v-25.6z"/>
	<path id="STOR CONNECT." class="s1" aria-label="STOR CONNECT."  d="m1276.6 196.2q-5.4 0-9.2-3.8-3.7-3.9-3.7-9.2 0-5.4 3.7-9.2 3.8-3.8 9.2-3.8 5.2 0 9 3.9 3.9 3.8 3.9 9.1 0 5.3-3.9 9.2-3.8 3.8-9 3.8z"/>
</svg>